<?xml version="1.0" encoding="UTF-8"?>
<svg id="Layer_1" data-name="Layer 1" xmlns="http://www.w3.org/2000/svg" xmlns:xlink="http://www.w3.org/1999/xlink" version="1.1" viewBox="0 0 1359.8 286">
  <defs>
    <style>
      .cls-1 {
        fill: url(#linear-gradient);
        isolation: isolate;
        opacity: .5;
        stroke-width: 0px;
      }
    </style>
    <linearGradient id="linear-gradient" x1="0" y1="146.1" x2="1358.8" y2="146.1" gradientTransform="translate(0 288) scale(1 -1)" gradientUnits="userSpaceOnUse">
      <stop offset="0" stop-color="#b552ff"/>
      <stop offset="0" stop-color="#ee2a27"/>
      <stop offset="1" stop-color="#682fef"/>
    </linearGradient>
  </defs>
  <path class="cls-1" d="M1358.8,0c-1.2,11.9-1.7,23.9-3.6,35.7-5.6,35.6-19,66.9-50.3,87.8-17.6,11.7-37.3,17.2-58.2,19.1-49.2,4.4-95.7-8-141.7-23.3-34.3-11.5-67.1-26.6-100-41.6-50.8-23.2-103.7-39.7-159-48.3-24.2-3.8-48.4-6.7-72.9-6.8-18.5-.1-37-1.1-55.4.3-26.6,2.1-53.3,4.9-79.6,9.3-95.4,16.1-184.7,50.7-271.1,92.9-63.7,31.2-126.4,64.4-189.7,96.4-42.3,21.4-85.1,42.1-131.3,54.1-15,3.9-30.7,5.6-46,8.3V0h1358.8Z"/>
</svg>